<svg width="100" height="100" fill="none" xmlns="http://www.w3.org/2000/svg"><path d="M58.5 0h-8v100h8l.5-9.5L71.5 85l8 6.5 12-12.5-6.5-7.5L90 59l10-.5v-17l-10-1L85 28l6-7.5-11.5-12-8 6.5L59 10l-.5-10z" fill="#08475E"/><path d="M42.5 0h8v100h-8l-.5-9.5L29.5 85l-8 6.5L9.5 79l6.5-7.5L11 59l-10-.5v-17l10-1L16 28l-6-7.5 11.5-12 8 6.5L42 10l.5-10z" fill="#0A617D"/><circle cx="50" cy="50" r="28" fill="#BFE4F8"/><g clip-path="url(#clip0_6_105)"><circle cx="50" cy="50" r="28" fill="#4BBAED"/></g><path d="M47.756 55.965l-8.604-8.605a2.434 2.434 0 10-3.441 3.442l7.645 7.646a6 6 0 008.637-.157l15.416-16.58a2.424 2.424 0 10-3.561-3.288L47.756 55.965z" fill="#fff"/><defs><clipPath id="clip0_6_105"><path fill="#fff" transform="translate(50 22)" d="M0 0h28v56H0z"/></clipPath></defs></svg>