<svg width="100" height="100" fill="none" xmlns="http://www.w3.org/2000/svg"><path d="M50 77.939l25.605 15.59c1.512.92 3.387-.434 2.988-2.16L71.792 61.96l22.664-19.806c1.328-1.16.612-3.348-1.146-3.498l-29.822-2.553L51.844 8.39c-.687-1.634-3.002-1.634-3.688 0L36.512 36.103 6.69 38.656c-1.758.15-2.474 2.337-1.146 3.498L28.208 61.96l-6.801 29.41c-.4 1.725 1.476 3.08 2.988 2.158L50 77.938z" fill="#BFE4F8"/><g clip-path="url(#clip0_6_149)"><path d="M50 78.37l26.327 15.89c1.515.913 3.383-.445 2.981-2.168l-6.986-29.948 23.262-20.152c1.337-1.158.622-3.355-1.14-3.504l-30.628-2.599L51.842 7.636c-.69-1.626-2.994-1.626-3.683 0L36.184 35.89 5.557 38.488c-1.763.15-2.478 2.346-1.14 3.504l23.261 20.152-6.986 29.948c-.402 1.723 1.466 3.081 2.981 2.167L50 78.37z" fill="#4BBAED"/></g><defs><clipPath id="clip0_6_149"><path fill="#fff" transform="translate(50 7)" d="M0 0h47v88H0z"/></clipPath></defs></svg>