<svg width="101" height="100" fill="none" xmlns="http://www.w3.org/2000/svg"><path d="M50 65.503l-50 .5c0-19.6 8.333-32.167 12.5-36l37.5 35.5z" fill="#BFE4F8"/><path d="M50 65.503L11.776 30.7C21.5 16.5 44.34 12.885 50 13.003v52.5z" fill="#92D1F3"/><path d="M100 65.503H50v-52.5c40.8 2.8 50.333 36.166 50 52.5z" fill="#15A0EC"/><circle cx="41" cy="60.503" r="29" fill="#fff"/><path d="M90.053 32.501l-43.5 44.5-8.5-5 52-52v12.5z" fill="#6FC8F1"/><path d="M77.053 20.019L33.553 63.5l4.5 8.573L89.98 20.001l-12.927.018z" fill="#B7E4F8"/><circle cx="44.664" cy="65.613" r="12.5" transform="rotate(47.21 44.664 65.613)" fill="#388CB3"/><g clip-path="url(#clip0_6_127)"><circle cx="44.664" cy="65.613" r="12.5" transform="rotate(47.21 44.664 65.613)" fill="#265D77"/></g><defs><clipPath id="clip0_6_127"><path fill="#fff" transform="rotate(47.209 -38.19 89.59)" d="M0 0h13v25H0z"/></clipPath></defs></svg>