<svg width="92" height="34" fill="none" xmlns="http://www.w3.org/2000/svg"><path d="M9.302 28.422c-1.425 0-2.71-.218-3.853-.653a7.869 7.869 0 01-2.92-1.988c-.803-.89-1.425-1.988-1.867-3.293C.221 21.163 0 19.62 0 17.859c0-1.74.22-3.283.662-4.628.442-1.365 1.064-2.502 1.867-3.412a7.707 7.707 0 012.92-2.107C6.593 7.237 7.877 7 9.302 7c1.947 0 3.552.396 4.816 1.187 1.265.771 2.278 1.998 3.041 3.679l-3.944 2.018c-.28-.87-.722-1.563-1.324-2.077-.582-.534-1.445-.802-2.589-.802-1.345 0-2.428.436-3.251 1.306-.803.85-1.204 2.097-1.204 3.738v3.323c0 1.642.401 2.898 1.204 3.769.823.85 1.906 1.276 3.251 1.276 1.124 0 2.017-.297 2.68-.89a5.548 5.548 0 001.504-2.196l3.733 2.136c-.783 1.582-1.816 2.809-3.1 3.68-1.265.85-2.87 1.275-4.817 1.275zm10.878-.356V12.489h4.456v3.382h.15c.08-.435.221-.85.422-1.246.2-.415.461-.781.782-1.098a3.714 3.714 0 011.205-.741c.461-.198 1.003-.297 1.625-.297h.783v4.095h-1.114c-1.305 0-2.278.168-2.92.504-.622.336-.933.96-.933 1.87v9.108H20.18zm22.04-15.577h4.154l-6.08 17.98c-.402 1.207-.974 2.097-1.716 2.67-.723.574-1.767.861-3.131.861h-2.77v-3.412h2.98l.542-1.721-5.539-16.378h4.426l2.318 7.27 1.143 4.51h.181l1.174-4.51 2.318-7.27zm6.418 0h4.455V15.1h.15c.221-.87.723-1.582 1.506-2.136.802-.554 1.715-.831 2.739-.831 2.007 0 3.522.692 4.546 2.077 1.023 1.384 1.535 3.402 1.535 6.053 0 2.65-.512 4.678-1.535 6.082-1.024 1.385-2.54 2.077-4.546 2.077-.522 0-1.014-.08-1.475-.237a4.617 4.617 0 01-1.264-.594 4.676 4.676 0 01-.934-.95 4.052 4.052 0 01-.572-1.186h-.15V34h-4.455V12.489zm7.375 12.372c.843 0 1.535-.286 2.077-.86.562-.593.843-1.385.843-2.373v-2.7c0-.99-.281-1.77-.843-2.345-.542-.593-1.234-.89-2.077-.89s-1.545.208-2.107.624c-.542.395-.813.949-.813 1.661v4.599c0 .712.27 1.276.813 1.691.562.396 1.264.593 2.107.593zm16.302 3.205c-1.545 0-2.72-.386-3.522-1.157-.783-.772-1.174-1.9-1.174-3.383v-7.625h-2.228V12.49h1.114c.602 0 1.014-.139 1.234-.415.221-.297.332-.713.332-1.246V8.276h4.003v4.213h3.131v3.412h-3.13v8.753h2.89v3.412h-2.65zm12.28.356c-1.165 0-2.208-.188-3.131-.564a6.38 6.38 0 01-2.318-1.632c-.622-.712-1.104-1.572-1.445-2.58-.341-1.01-.512-2.137-.512-3.383 0-1.247.17-2.374.512-3.383.341-1.009.823-1.86 1.445-2.551a6.38 6.38 0 012.318-1.632c.923-.376 1.966-.564 3.13-.564 1.165 0 2.198.188 3.101.564.923.376 1.696.92 2.318 1.632.642.692 1.134 1.542 1.475 2.551.341 1.009.512 2.137.512 3.383s-.17 2.373-.512 3.382c-.34 1.009-.833 1.87-1.475 2.581a6.059 6.059 0 01-2.318 1.632c-.903.376-1.936.564-3.1.564zm0-3.471c.883 0 1.565-.268 2.047-.802.481-.534.722-1.295.722-2.284V18.69c0-.989-.24-1.75-.722-2.285-.482-.534-1.164-.8-2.047-.8-.883 0-1.566.266-2.047.8-.482.535-.723 1.296-.723 2.285v3.175c0 .989.24 1.75.722 2.285.482.534 1.165.8 2.048.8zM19 0h35v4H19V0z" fill="#55C2FF"/></svg>